<svg xmlns="http://www.w3.org/2000/svg" width="747.12" height="171.09" viewBox="0 0 747.12 171.09">
  <defs>
    <style>
      .cls-1 {
        fill: #0082e6;
      }
    </style>
  </defs>
  <g id="Capa_2" data-name="Capa 2">
    <g id="Capa_2-2" data-name="Capa 2">
      <g>
        <rect class="cls-1" y="88.08" width="50.78" height="83.01" rx="6.58"/>
        <rect class="cls-1" x="61.37" y="111.95" width="50.78" height="59.14" rx="6.58"/>
        <rect class="cls-1" x="122.74" y="60.35" width="50.78" height="110.73" rx="6.58"/>
        <path class="cls-1" d="M26.77,62.92a17.55,17.55,0,0,0,15-8.47L69.58,65.51A17.57,17.57,0,1,0,102,60.43l35.26-29.06a17.59,17.59,0,1,0-3.9-4.3L98.29,56a17.58,17.58,0,0,0-26.56,4.15L44,49.06A17.58,17.58,0,1,0,26.77,62.92Z"/>
      </g>
    </g>
    <g id="Capa_3" data-name="Capa 3">
      <g>
        <path class="cls-1" d="M420.41,85.6a84.85,84.85,0,0,1-21.28,57.22q-24.28,28-65.69,28t-65.57-28A84.81,84.81,0,0,1,246.58,85.6a88.13,88.13,0,0,1,5.76-30.54,85.28,85.28,0,0,1,15.41-26.8Q292,.24,333.44.24t65.69,28A85,85,0,0,1,420.41,85.6Zm-42.34,0a43.42,43.42,0,0,0-10.61-29.27q-13.6-15.75-34-15.75A43.19,43.19,0,0,0,308,48.63a43.87,43.87,0,0,0-16.26,21.45,45.18,45.18,0,0,0-2.77,15.52,44.26,44.26,0,0,0,10.61,29q13.14,15.87,33.91,15.87t34-15.75A43.86,43.86,0,0,0,378.07,85.6Z"/>
        <path class="cls-1" d="M539.36,39.76H505.54V165.1H464.7V39.76H431.45V5.05H539.36Z"/>
        <path class="cls-1" d="M747.12,165.1H706.28L694.67,72.94,656.75,165.1H640.54l-36.2-92.16L591,165.1H550.29L577,5.05h40.38l31.75,85.36L682.7,5.05h40.72Z"/>
      </g>
    </g>
  </g>
</svg>
